<?xml version="1.0" encoding="iso-8859-1"?>
<!-- Generator: Adobe Illustrator 19.0.0, SVG Export Plug-In . SVG Version: 6.00 Build 0)  -->
<svg version="1.1" id="Capa_1" xmlns="http://www.w3.org/2000/svg" xmlns:xlink="http://www.w3.org/1999/xlink" x="0px" y="0px"
	 viewBox="0 0 511.996 511.996" style="enable-background:new 0 0 511.996 511.996;" xml:space="preserve">
<g>
	<g>
		<path d="M279.391,378.709l-4.363-7.555c-2.07-3.586-6.657-4.816-10.245-2.743c-3.587,2.071-4.815,6.658-2.743,10.245l4.363,7.555
			c1.389,2.405,3.909,3.75,6.501,3.75c1.272,0,2.563-0.324,3.744-1.007C280.235,386.883,281.463,382.296,279.391,378.709z"/>
	</g>
</g>
<g>
	<g>
		<path d="M312.685,250.321c-6.66,0.244-10.758,0.184-10.799,0.185c-0.04-0.001-0.081-0.001-0.122-0.001
			c-4.085,0-7.43,3.278-7.496,7.378c-0.067,4.142,3.235,7.554,7.377,7.621c0.063,0.001,0.612,0.01,1.598,0.01
			c1.878,0,5.336-0.031,9.993-0.202c4.14-0.152,7.372-3.632,7.22-7.771C320.302,253.401,316.816,250.203,312.685,250.321z"/>
	</g>
</g>
<g>
	<g>
		<path d="M495.053,6.361c-0.63-4.095-4.462-6.907-8.554-6.272c-1.845,0.284-3.424,1.221-4.55,2.536l-0.004-0.003
			c-36.181,42.21-72.849,75.557-106.781,101.681c0.849-10.433-0.45-23.246-8.582-33.894c2.795-10.189,3.566-20.004,2.278-29.399
			c-2.631-19.18-13.278-29.238-13.73-29.657c-1.753-1.624-4.177-2.316-6.522-1.862c-2.347,0.454-4.336,1.999-5.357,4.161
			C323.555,55.36,219.733,148.681,199.05,167.029c-10.983-12.121-22.696-22.387-34.729-30.33
			c-22.269-14.702-44.062-20.333-63.016-16.289c-13.101,2.795-22.563,9.06-28.124,18.62c-6.833,11.748-5.561,25.175-4.249,31.978
			c-3.851,4.464-6.54,9.064-8.062,13.77c-0.328-0.801-0.649-1.617-0.954-2.467c-7.998-22.256-3.815-49.863,4.839-76.134
			c6.225,5.314,14.193,8.383,22.521,8.383c12.303,0,23.833-6.68,30.092-17.434c1.356-2.332,1.356-5.213,0-7.545
			c-6.26-10.754-17.79-17.434-30.093-17.434c-3.234,0-6.411,0.473-9.457,1.349c1.417-3.051,2.851-6.032,4.289-8.93
			c12.272-0.501,24.008-6.625,31.515-16.735c8.578-11.553,10.596-26.887,5.266-40.019c-1.054-2.598-3.469-4.39-6.259-4.647
			C98.515,1.852,84.421,8.226,75.842,19.78c-7.855,10.58-10.189,24.328-6.437,36.655c-2.226,4.438-4.334,8.812-6.302,13.111
			c-2.508-3.255-5.585-6.087-9.162-8.292c-10.474-6.455-23.793-6.817-34.764-0.947c-2.379,1.272-3.891,3.726-3.959,6.422
			c-0.314,12.438,5.996,24.175,16.471,30.63c5.515,3.399,11.818,5.109,18.154,5.108c0.084,0,0.169-0.007,0.253-0.008
			c-11.121,34.063-12.504,62.728-4.061,85.574c9.696,26.234,29.107,34.482,29.929,34.821l0.009-0.022
			c0.905,0.373,1.867,0.586,2.846,0.586c0.593,0,1.189-0.07,1.776-0.214c2.143-0.521,3.945-1.96,4.932-3.932
			c5.723-11.444,11.432-18.491,13.65-21.022c5.411-1.858,7.962-0.375,8.846,0.142c3.028,1.776,8.456,7.741,10.774,27.741
			c2.921,25.197,7.91,54.585,22.761,81.502c7.046,12.771,15.833,24.029,26.305,33.744l-9.738,14.606
			c-4.348,6.521-6.646,14.109-6.646,21.947v6.323c0,4.143,3.357,7.5,7.5,7.5c4.143,0,7.5-3.357,7.5-7.5v-6.323
			c0-4.866,1.427-9.577,4.126-13.626l8.867-13.302c0.916,0.678,1.842,1.347,2.778,2.006c-4.717,9.447-5.477,20.167-2.137,30.185
			l3.815,11.448c1.048,3.144,3.974,5.131,7.114,5.131c0.786,0,1.586-0.125,2.372-0.387c3.93-1.31,6.054-5.557,4.744-9.486
			l-3.815-11.449c-1.916-5.748-1.654-11.865,0.707-17.39c9.438,5.29,19.735,9.76,30.883,13.385l70.709,133.559
			c1.276,2.412,3.763,3.94,6.491,3.99c0.046,0.001,0.092,0.001,0.138,0.001c2.676,0,5.154-1.428,6.495-3.752l15.417-26.722
			c4.186-7.258,4.184-16.273-0.006-23.527l-7.064-12.233l18.334-30.972c0.591-1,0.941-2.123,1.023-3.281l3.341-46.761
			c0.223-3.128-1.523-6.064-4.378-7.362c-35.121-15.964-55.39-43.662-64.793-59.825c12.715,2.661,27.057,4.627,41.685,4.627
			c15.388,0,31.093-2.176,45.544-8.006c21.741-8.77,37.659-24.624,47.367-47.098c18.515-8.175,29.302-17.717,35.565-25.883
			c8.909-11.615,12.792-25.202,11.594-40.428c7.248-6.232,13.189-12.999,17.78-20.285c11.747-18.648,14.221-40.092,7.376-63.773
			C494.318,69.227,500.006,38.554,495.053,6.361z M87.885,28.722c4.558-6.138,11.244-9.911,18.501-10.613
			c1.428,7.149-0.251,14.644-4.808,20.78s-11.243,9.911-18.5,10.613C81.651,42.352,83.33,34.858,87.885,28.722z M87.275,87.147
			c5.516,0,10.617,2.259,14.322,6.205c-3.705,3.947-8.807,6.206-14.322,6.206s-10.617-2.259-14.322-6.206
			C76.658,89.406,81.759,87.147,87.275,87.147z M39.558,84.589c-4.695-2.895-7.853-7.494-8.936-12.797
			c5.224-1.419,10.753-0.662,15.447,2.231h0.001c4.695,2.895,7.853,7.493,8.937,12.797C49.78,88.238,44.253,87.482,39.558,84.589z
			 M350.64,31.028c5.847,12.75,9.73,39.549-24.447,81.274c-2.625,3.205-2.155,7.931,1.049,10.555
			c3.205,2.626,7.931,2.155,10.555-1.049c9.13-11.147,16.292-21.993,21.483-32.499c3.016,11.91-0.926,24.969-2.075,28.35
			c-28.032,20.125-53.655,35.209-74.838,46.21c-25.677,13.335-47.628,22.219-63.733,27.901c-3.191-4.604-6.486-9.042-9.871-13.299
			C228.09,161.386,320.08,78.951,350.64,31.028z M77.259,203.199c-1.437-2.276-2.623-5.027-2.844-8.079
			c-0.25-3.447,0.794-7.01,3.111-10.644l7.261,7.673C82.692,194.855,80.068,198.54,77.259,203.199z M392.655,162.952
			c1.266,2.744,3.979,4.359,6.814,4.359c1.052,0,2.12-0.223,3.138-0.692c1.116-0.515,27.623-12.914,52.368-38.69
			c4.276-4.454,8.225-9.036,11.855-13.73c1.59,14.083-1.182,26.911-8.33,38.271c-26.206,41.646-101.738,52.884-102.672,53.019
			c-4.101,0.58-6.955,4.374-6.375,8.476c0.529,3.745,3.739,6.451,7.416,6.451c0.35,0,0.703-0.024,1.06-0.075
			c0.843-0.119,20.914-3.017,44.798-11.638c13.518-4.879,25.378-10.515,35.545-16.871c-0.921,7.447-3.69,14.143-8.371,20.245
			c-9.502,12.39-32.108,28.63-85.84,35.638c-4.107,0.536-7.003,4.3-6.467,8.407c0.492,3.778,3.717,6.531,7.427,6.531
			c0.323,0,0.65-0.021,0.979-0.063c15.107-1.971,28.019-4.696,39.076-7.901c-7.922,11.646-18.552,20.229-31.781,25.573
			c-49.804,20.122-120.767-10.2-121.675-10.594c-3.797-1.655-8.217,0.081-9.873,3.877c-1.655,3.797,0.08,8.217,3.877,9.873
			c1.123,0.49,11.358,4.884,26.592,9.297c4.697,10.61,25.651,52.401,73.27,76.077l-1.79,25.055l-13.566-13.836
			c-2.901-2.959-7.649-3.002-10.606-0.104c-2.957,2.9-3.004,7.648-0.104,10.606l21.187,21.608l-11.086,18.762l-15.23-26.373
			c-2.072-3.586-6.657-4.814-10.246-2.744c-3.587,2.071-4.815,6.658-2.744,10.246l30.891,53.491c1.519,2.63,1.52,5.899,0.002,8.53
			l-8.638,14.972l-65.8-124.285c-0.931-1.759-2.521-3.074-4.422-3.659c-36.608-11.264-62.331-31.108-78.64-60.667
			c-13.558-24.573-18.103-51.041-20.994-75.982c-2.373-20.467-8.289-33.209-18.089-38.954c-3.951-2.317-10.177-4.313-18.579-2.192
			L83.92,169.411c-0.89-3.897-2.645-14.543,2.268-22.911c3.353-5.711,9.491-9.554,18.245-11.421
			c28.989-6.176,68.171,18.378,99.3,61.602c-9.014,2.748-14.099,3.857-14.233,3.885c-4.054,0.854-6.647,4.831-5.794,8.884
			c0.743,3.532,3.859,5.957,7.331,5.957c0.512,0,1.032-0.053,1.553-0.163c1.596-0.336,39.723-8.562,96.093-37.754
			c49.14-25.447,121.469-72.165,193.085-151.946c0.958,33.9-11.531,64.666-37.278,91.645c-22.739,23.826-47.827,35.65-48.175,35.812
			C392.559,154.74,390.92,159.193,392.655,162.952z"/>
	</g>
</g>
<g>
	<g>
		<path d="M106.125,148.801h-0.08c-4.143,0-7.46,3.357-7.46,7.5s3.397,7.5,7.54,7.5c4.143,0,7.5-3.357,7.5-7.5
			S110.267,148.801,106.125,148.801z"/>
	</g>
</g>
<g>
</g>
<g>
</g>
<g>
</g>
<g>
</g>
<g>
</g>
<g>
</g>
<g>
</g>
<g>
</g>
<g>
</g>
<g>
</g>
<g>
</g>
<g>
</g>
<g>
</g>
<g>
</g>
<g>
</g>
</svg>
