<?xml version="1.0" encoding="UTF-8" standalone="no"?>
<!-- Created with Inkscape (http://www.inkscape.org/) -->

<svg
   version="1.1"
   id="svg81"
   xml:space="preserve"
   width="682.66669"
   height="682.66669"
   viewBox="0 0 682.66669 682.66669"
   xmlns="http://www.w3.org/2000/svg"
   xmlns:svg="http://www.w3.org/2000/svg"><defs
     id="defs85"><clipPath
       clipPathUnits="userSpaceOnUse"
       id="clipPath95"><path
         d="M 0,512 H 512 V 0 H 0 Z"
         id="path93" /></clipPath></defs><g
     id="g87"
     transform="matrix(1.3333333,0,0,-1.3333333,0,682.66667)"><g
       id="g89"><g
         id="g91"
         clip-path="url(#clipPath95)"><g
           id="g97"
           transform="translate(60.4556,305.3845)"><path
             d="M 0,0 C 12.298,-36.61 52.002,-111.422 163.44,-61.894"
             style="fill:none;stroke:#000000;stroke-width:15;stroke-linecap:round;stroke-linejoin:round;stroke-miterlimit:10;stroke-dasharray:none;stroke-opacity:1"
             id="path99" /></g><g
           id="g101"
           transform="translate(152.0977,226.126)"><path
             d="M 0,0 C 0,0 39.739,-70.796 111.871,-6.679"
             style="fill:none;stroke:#000000;stroke-width:15;stroke-linecap:round;stroke-linejoin:round;stroke-miterlimit:10;stroke-dasharray:none;stroke-opacity:1"
             id="path103" /></g><g
           id="g105"
           transform="translate(167.793,171.3591)"><path
             d="m 0,0 -78.726,-35.784 c -6.133,-2.788 -9.834,-9.084 -9.358,-15.804 1.59,-22.516 12.678,-70.11 78.095,-69.132 6.001,0.09 11.505,3.533 14.189,8.901 l 27.859,55.716"
             style="fill:none;stroke:#000000;stroke-width:15;stroke-linecap:round;stroke-linejoin:round;stroke-miterlimit:10;stroke-dasharray:none;stroke-opacity:1"
             id="path107" /></g><g
           id="g109"
           transform="translate(183.8223,275.5496)"><path
             d="M 0,0 C -136.249,-24.044 -176.322,112.205 -176.322,112.205 L 121.902,5.15 c 8.759,-3.144 18.545,-0.952 25.125,5.629 l 13.695,13.694 c 15.12,15.12 35.628,23.615 57.012,23.615 h 0.016 c 16.958,0 30.704,-13.747 30.704,-30.704 v -0.501 c 0,-15.039 -9.153,-28.562 -23.113,-34.152 l -0.011,-0.004 c -10.528,-4.216 -18.446,-13.118 -21.652,-23.995 -51.74,-175.484 -181.105,-120.651 -214.005,-103.341 -4.978,2.619 -10.965,2.341 -15.75,-0.614 l -66.592,-41.118"
             style="fill:none;stroke:#000000;stroke-width:15;stroke-linecap:round;stroke-linejoin:round;stroke-miterlimit:10;stroke-dasharray:none;stroke-opacity:1"
             id="path111" /></g><g
           id="g113"
           transform="translate(123.3784,58.1523)"><path
             d="M 0,0 57.438,67.123"
             style="fill:none;stroke:#000000;stroke-width:15;stroke-linecap:round;stroke-linejoin:round;stroke-miterlimit:10;stroke-dasharray:none;stroke-opacity:1"
             id="path115" /></g><g
           id="g117"
           transform="translate(344.5439,300.0222)"><path
             d="m 0,0 -228.178,110.441 c 0,0 0.334,-38.738 20.704,-68.793"
             style="fill:none;stroke:#000000;stroke-width:15;stroke-linecap:round;stroke-linejoin:round;stroke-miterlimit:10;stroke-dasharray:none;stroke-opacity:1"
             id="path119" /></g><g
           id="g121"
           transform="translate(392.2031,291.5789)"><path
             d="M 0,0 V -8.015"
             style="fill:none;stroke:#000000;stroke-width:15;stroke-linecap:round;stroke-linejoin:round;stroke-miterlimit:10;stroke-dasharray:none;stroke-opacity:1"
             id="path123" /></g><g
           id="g125"
           transform="translate(432.2764,299.5935)"><path
             d="M 0,0 40.073,-24.044 -8.015,-32.059"
             style="fill:none;stroke:#000000;stroke-width:15;stroke-linecap:round;stroke-linejoin:round;stroke-miterlimit:10;stroke-dasharray:none;stroke-opacity:1"
             id="path127" /></g><g
           id="g129"
           transform="translate(488.3789,235.4763)"><path
             d="M 0,0 C 0,0 -47.169,134.947 -56.604,224.911"
             style="fill:none;stroke:#000000;stroke-width:15;stroke-linecap:round;stroke-linejoin:round;stroke-miterlimit:10;stroke-dasharray:none;stroke-opacity:1"
             id="path131" /></g><g
           id="g133"
           transform="translate(408.3296,394.562)"><path
             d="m 0,0 c -17.574,2.757 -34.122,-2.747 -44.178,-13.178 6.379,-13.009 20.447,-23.314 38.021,-26.071 17.574,-2.757 34.122,2.747 44.178,13.177 C 31.642,-13.063 17.574,-2.757 0,0 Z"
             style="fill:none;stroke:#000000;stroke-width:15;stroke-linecap:round;stroke-linejoin:round;stroke-miterlimit:10;stroke-dasharray:none;stroke-opacity:1"
             id="path135" /></g><g
           id="g137"
           transform="translate(461.8975,449.6558)"><path
             d="M 0,0 C 13.102,10.63 29.295,13.997 42.511,10.231 43.474,-3.477 36.843,-18.63 23.742,-29.261 10.64,-39.891 -5.553,-43.258 -18.769,-39.491 -19.732,-25.783 -13.102,-10.631 0,0 Z"
             style="fill:none;stroke:#000000;stroke-width:15;stroke-linecap:round;stroke-linejoin:round;stroke-miterlimit:10;stroke-dasharray:none;stroke-opacity:1"
             id="path139" /></g></g></g></g></svg>
