<?xml version="1.0" encoding="UTF-8"?>
<svg xmlns="http://www.w3.org/2000/svg" xmlns:xlink="http://www.w3.org/1999/xlink" version="1.1" id="Capa_1" x="0px" y="0px" viewBox="0 0 511.695 511.695" style="enable-background:new 0 0 511.695 511.695;" xml:space="preserve" width="512" height="512">
<g>
	
		<rect x="199.298" y="306.875" style="fill:none;stroke:#000000;stroke-width:15;stroke-miterlimit:10;" width="124.875" height="31.938"/>
	<path style="fill:none;stroke:#000000;stroke-width:15;stroke-miterlimit:10;" d="M340.888,398.219l-16.778-59.406H199.235&#10;&#9;&#9;L166.037,456.75l65.823,15.062v30c0,0,89.875,14.938,129.812-30l-16.531-58.531"/>
	
		<line style="fill:none;stroke:#000000;stroke-width:15;stroke-miterlimit:10;" x1="305.939" y1="388.849" x2="291.808" y2="338.812"/>
	
		<line style="fill:none;stroke:#000000;stroke-width:15;stroke-miterlimit:10;" x1="231.86" y1="471.812" x2="231.86" y2="338.812"/>
	
		<line style="fill:none;stroke:#000000;stroke-width:15;stroke-miterlimit:10;" x1="265.798" y1="338.812" x2="265.798" y2="418.812"/>
	<polyline style="fill:none;stroke:#000000;stroke-width:15;stroke-miterlimit:10;" points="377.709,371.801 324.721,338.812 &#10;&#9;&#9;377.709,305.824 &#9;"/>
	<path style="fill:none;stroke:#000000;stroke-width:15;stroke-miterlimit:10;" d="M233.633,255.875&#10;&#9;&#9;c-1.247,6.936-1.898,14.08-1.898,21.375v29.562"/>
	<path style="fill:none;stroke:#000000;stroke-width:15;stroke-miterlimit:10;" d="M272.299,187.304&#10;&#9;&#9;c-16.135,14.26-28.403,32.794-35.034,53.83"/>
	<path style="fill:none;stroke:#000000;stroke-width:15;stroke-miterlimit:10;" d="M398.73,235.866&#10;&#9;&#9;c13.36-23.133,21.005-49.981,21.005-78.616h-68c-7.084,0-14.025,0.614-20.773,1.791"/>
	<path style="fill:none;stroke:#000000;stroke-width:15;stroke-miterlimit:10;" d="M130.932,244.051&#10;&#9;&#9;c19.004,28.7,47.163,50.81,80.312,62.168h102.106c24.573-8.42,46.404-22.747,63.796-41.288"/>
	<path style="fill:none;stroke:#000000;stroke-width:15;stroke-miterlimit:10;" d="M246.741,218.117&#10;&#9;&#9;c-20.622-36.346-59.669-60.867-104.443-60.867H104.86c0,18.198,3.088,35.674,8.767,51.933"/>
	
		<line style="fill:none;stroke:#000000;stroke-width:15;stroke-miterlimit:10;" x1="265.798" y1="305.824" x2="295.798" y2="245.824"/>
	<path style="fill:none;stroke:#000000;stroke-width:15;stroke-miterlimit:10;" d="M404.709,157.25&#10;&#9;&#9;c-0.154-16.404-10.437-31.408-27.385-42.99"/>
	<path style="fill:none;stroke:#000000;stroke-width:15;stroke-miterlimit:10;" d="M251.886,138.389&#10;&#9;&#9;c5.208,3.324,11.74,4.411,16.371,4.411c8.143,0,15.038-9.409,17.388-22.397c10.845,7.523,22.374,9.301,28.132,3.542&#10;&#9;&#9;s3.981-17.287-3.543-28.132c12.989-2.349,22.398-9.244,22.398-17.388s-9.409-15.039-22.398-17.388&#10;&#9;&#9;c7.523-10.845,9.301-22.374,3.543-28.132s-17.287-3.981-28.132,3.542c-2.349-12.989-9.244-22.397-17.388-22.397&#10;&#9;&#9;s-15.038,9.409-17.388,22.397c-10.845-7.523-22.374-9.301-28.132-3.542"/>
	<path style="fill:none;stroke:#000000;stroke-width:15;stroke-miterlimit:10;" d="M143.022,157.262&#10;&#9;&#9;c26.142,0.155,50.302,8.665,69.943,23.001c8.447,3.824,16.447,3.934,20.937-0.556c5.758-5.758,3.981-17.287-3.543-28.132&#10;&#9;&#9;c12.989-2.349,22.398-9.244,22.398-17.388s-9.409-15.039-22.398-17.388c7.523-10.845,9.301-22.374,3.543-28.132&#10;&#9;&#9;s-17.287-3.981-28.132,3.542c-2.349-12.989-9.244-22.397-17.388-22.397s-15.038,9.409-17.388,22.397&#10;&#9;&#9;c-10.845-7.523-22.374-9.301-28.132-3.542s-3.981,17.287,3.543,28.132c-12.989,2.349-21.022,9.361-22.398,17.388&#10;&#9;&#9;C121.902,146.479,143.022,157.262,143.022,157.262z"/>
	<path style="fill:none;stroke:#000000;stroke-width:15;stroke-miterlimit:10;" d="M203.883,78.425&#10;&#9;&#9;c0-8.144,9.409-15.039,22.398-17.388c-7.523-10.845-9.301-22.374-3.543-28.132c0.955-0.955,2.082-1.684,3.325-2.232l0,0&#10;&#9;&#9;c-0.562-1.648-1.417-3.114-2.62-4.317c-5.758-5.758-17.287-3.981-28.132,3.542C192.961,16.909,186.066,7.5,177.923,7.5&#10;&#9;&#9;s-15.038,9.409-17.388,22.397c-10.845-7.523-22.374-9.301-28.132-3.542s-3.981,17.287,3.543,28.132&#10;&#9;&#9;c-12.989,2.349-22.398,9.244-22.398,17.388s16.326,14.443,29.315,16.792c5.758-5.758,17.287-3.981,28.132,3.542&#10;&#9;&#9;c2.349-12.989,9.244-22.397,17.388-22.397c5.963,0,11.247,5.057,14.577,12.857c0-0.001-0.001-0.002-0.001-0.003&#10;&#9;&#9;C203.524,81.027,203.883,79.575,203.883,78.425z"/>
	
		<line style="fill:none;stroke:#000000;stroke-width:15;stroke-miterlimit:10;" x1="260.758" y1="78.425" x2="275.758" y2="78.425"/>
	
		<line style="fill:none;stroke:#000000;stroke-width:15;stroke-miterlimit:10;" x1="180.809" y1="134.183" x2="195.809" y2="134.183"/>
	<path style="fill:none;stroke:#000000;stroke-width:15;stroke-miterlimit:10;" d="M316.631,118.896&#10;&#9;&#9;c6.166,3.818,16.45,1.717,26.196-5.043c2.349,12.989,9.244,22.397,17.388,22.397s15.038-9.409,17.388-22.397&#10;&#9;&#9;c10.845,7.523,22.374,9.301,28.132,3.542s3.981-17.287-3.543-28.132c12.989-2.349,22.398-9.244,22.398-17.388&#10;&#9;&#9;s-9.409-15.039-22.398-17.388c7.523-10.845,9.301-22.374,3.543-28.132s-17.287-3.981-28.132,3.542&#10;&#9;&#9;C375.253,16.909,368.358,7.5,360.215,7.5s-15.039,9.409-17.388,22.397c-10.845-7.523-22.374-9.301-28.132-3.542&#10;&#9;&#9;c-1.214,1.214-3.094,2.523-5.23,3.932"/>
	
		<line style="fill:none;stroke:#000000;stroke-width:15;stroke-miterlimit:10;" x1="352.528" y1="71.875" x2="367.528" y2="71.875"/>
	<path style="fill:none;stroke:#000000;stroke-width:15;stroke-miterlimit:10;" d="M142.863,88.667&#10;&#9;&#9;c-5.758,5.758-3.981,17.287,3.543,28.132c-12.989,2.349-21.022,9.361-22.398,17.388c-2.106,12.292,19.014,23.075,19.014,23.075"/>
	<path style="fill:none;stroke:#000000;stroke-width:15;stroke-miterlimit:10;" d="M212.966,180.263&#10;&#9;&#9;c8.447,3.824,16.447,3.934,20.937-0.556c5.758-5.758,3.981-17.287-3.543-28.132c12.989-2.349,22.398-9.244,22.398-17.388&#10;&#9;&#9;s-9.409-15.039-22.398-17.388c7.523-10.845,9.301-22.374,3.543-28.132s-17.287-3.981-28.132,3.542"/>
	<path style="fill:none;stroke:#000000;stroke-width:15;stroke-miterlimit:10;" d="M89.206,78.931&#10;&#9;&#9;c13.902,11.336,13.008,35.441,13.008,35.441s-23.433,5.727-37.334-5.609S51.872,73.321,51.872,73.321S75.304,67.595,89.206,78.931z&#10;&#9;&#9;"/>
	<path style="fill:none;stroke:#000000;stroke-width:15;stroke-miterlimit:10;" d="M450.829,99.966&#10;&#9;&#9;c17.072-5.504,36.818,8.352,36.818,8.352s-7.934,22.78-25.006,28.284c-17.072,5.504-36.818-8.352-36.818-8.352&#10;&#9;&#9;S433.757,105.47,450.829,99.966z"/>
	<path style="fill:none;stroke:#000000;stroke-width:15;stroke-miterlimit:10;" d="M293.434,156.071&#10;&#9;&#9;c16.19-7.723,37.601,3.388,37.601,3.388s-4.838,23.632-21.028,31.355c-16.19,7.723-37.601-3.388-37.601-3.388&#10;&#9;&#9;S277.244,163.794,293.434,156.071z"/>
	<path style="fill:none;stroke:#000000;stroke-width:15;stroke-miterlimit:10;" d="M115.573,208.504&#10;&#9;&#9;c16.19-7.723,37.601,3.388,37.601,3.388s-4.838,23.632-21.028,31.355c-16.19,7.723-37.601-3.388-37.601-3.388&#10;&#9;&#9;S99.384,216.227,115.573,208.504z"/>
	<path style="fill:none;stroke:#000000;stroke-width:15;stroke-miterlimit:10;" d="M393.062,230.263&#10;&#9;&#9;c14.502,10.557,14.931,34.675,14.931,34.675s-23.084,7.002-37.585-3.555c-14.502-10.557-14.931-34.675-14.931-34.675&#10;&#9;&#9;S378.561,219.706,393.062,230.263z"/>
	<path style="fill:none;stroke:#000000;stroke-width:15;stroke-miterlimit:10;" d="M452.246,38.819&#10;&#9;&#9;c10.285-14.696,34.392-15.573,34.392-15.573s7.43,22.949-2.855,37.645s-34.392,15.573-34.392,15.573S441.961,53.515,452.246,38.819&#10;&#9;&#9;z"/>
	<path style="fill:none;stroke:#000000;stroke-width:15;stroke-miterlimit:10;" d="M48.699,132.535&#10;&#9;&#9;c17.034-5.621,36.874,8.099,36.874,8.099s-7.777,22.834-24.811,28.455s-36.874-8.099-36.874-8.099S31.665,138.157,48.699,132.535z"/>
	
		<line style="fill:none;stroke:#000000;stroke-width:15;stroke-miterlimit:10;" x1="263.855" y1="142.8" x2="267.796" y2="191.504"/>
	
		<line style="fill:none;stroke:#000000;stroke-width:15;stroke-miterlimit:10;" x1="342.827" y1="113.853" x2="331.035" y2="159.458"/>
	<line style="fill:none;stroke:#000000;stroke-width:15;stroke-miterlimit:10;" x1="59.758" y1="30.425" x2="74.758" y2="30.425"/>
	
		<line style="fill:none;stroke:#000000;stroke-width:15;stroke-miterlimit:10;" x1="464.235" y1="201.812" x2="479.235" y2="201.812"/>
	
		<line style="fill:none;stroke:#000000;stroke-width:15;stroke-miterlimit:10;" x1="36.735" y1="210.812" x2="51.735" y2="210.812"/>
</g>















</svg>
